<?xml version="1.0" encoding="UTF-8"?>
<svg xmlns="http://www.w3.org/2000/svg" version="1.1" width="100" height="100" viewBox="0 0 100 100"><rect x="0" y="0" width="100" height="100" fill="#ffffff"/><g transform="scale(4)"><g transform="translate(0,0)"><path fill-rule="evenodd" d="M8 0L8 1L11 1L11 3L10 3L10 2L9 2L9 3L10 3L10 5L9 5L9 6L8 6L8 8L9 8L9 9L10 9L10 10L4 10L4 11L3 11L3 10L2 10L2 11L1 11L1 10L0 10L0 17L1 17L1 15L2 15L2 17L3 17L3 15L8 15L8 14L6 14L6 13L10 13L10 15L9 15L9 16L6 16L6 17L8 17L8 18L9 18L9 20L8 20L8 22L9 22L9 23L8 23L8 25L10 25L10 24L9 24L9 23L11 23L11 25L14 25L14 19L15 19L15 24L16 24L16 25L17 25L17 24L16 24L16 21L17 21L17 22L18 22L18 25L20 25L20 23L21 23L21 25L23 25L23 24L24 24L24 25L25 25L25 14L24 14L24 13L25 13L25 12L24 12L24 11L25 11L25 10L24 10L24 11L20 11L20 12L21 12L21 13L19 13L19 10L17 10L17 8L15 8L15 6L14 6L14 7L13 7L13 6L12 6L12 5L13 5L13 4L14 4L14 5L16 5L16 7L17 7L17 1L16 1L16 0L13 0L13 1L12 1L12 0ZM14 1L14 3L15 3L15 2L16 2L16 1ZM12 2L12 4L13 4L13 2ZM10 5L10 6L9 6L9 7L10 7L10 9L11 9L11 10L10 10L10 11L8 11L8 12L11 12L11 16L10 16L10 17L9 17L9 18L10 18L10 20L11 20L11 19L12 19L12 21L9 21L9 22L12 22L12 23L13 23L13 22L12 22L12 21L13 21L13 19L12 19L12 18L15 18L15 19L16 19L16 17L15 17L15 16L18 16L18 14L19 14L19 13L17 13L17 12L16 12L16 13L17 13L17 14L16 14L16 15L15 15L15 16L13 16L13 17L12 17L12 18L11 18L11 16L12 16L12 15L14 15L14 13L13 13L13 12L14 12L14 10L15 10L15 8L13 8L13 9L12 9L12 6L11 6L11 5ZM10 6L10 7L11 7L11 6ZM0 8L0 9L2 9L2 8ZM3 8L3 9L5 9L5 8ZM6 8L6 9L7 9L7 8ZM18 8L18 9L19 9L19 8ZM24 8L24 9L25 9L25 8ZM20 9L20 10L23 10L23 9ZM12 10L12 11L13 11L13 10ZM16 10L16 11L17 11L17 10ZM2 11L2 13L1 13L1 14L2 14L2 15L3 15L3 14L2 14L2 13L4 13L4 14L5 14L5 12L7 12L7 11L5 11L5 12L3 12L3 11ZM22 12L22 13L24 13L24 12ZM12 13L12 14L13 14L13 13ZM20 14L20 15L21 15L21 14ZM22 14L22 15L23 15L23 14ZM4 16L4 17L5 17L5 16ZM21 16L21 17L22 17L22 16ZM23 16L23 17L24 17L24 16ZM17 17L17 20L20 20L20 17ZM18 18L18 19L19 19L19 18ZM23 18L23 19L21 19L21 20L22 20L22 21L21 21L21 22L22 22L22 23L23 23L23 22L22 22L22 21L23 21L23 20L24 20L24 18ZM19 21L19 22L20 22L20 21ZM0 0L0 7L7 7L7 0ZM1 1L1 6L6 6L6 1ZM2 2L2 5L5 5L5 2ZM18 0L18 7L25 7L25 0ZM19 1L19 6L24 6L24 1ZM20 2L20 5L23 5L23 2ZM0 18L0 25L7 25L7 18ZM1 19L1 24L6 24L6 19ZM2 20L2 23L5 23L5 20Z" fill="#000000"/></g></g></svg>
