<?xml version="1.0" encoding="UTF-8"?>
<svg xmlns="http://www.w3.org/2000/svg" version="1.1" width="100" height="100" viewBox="0 0 100 100"><rect x="0" y="0" width="100" height="100" fill="#ffffff"/><g transform="scale(4.762)"><g transform="translate(0,0)"><path fill-rule="evenodd" d="M9 0L9 2L8 2L8 3L9 3L9 4L10 4L10 5L11 5L11 4L12 4L12 7L11 7L11 6L10 6L10 7L9 7L9 6L8 6L8 8L4 8L4 9L3 9L3 8L0 8L0 9L2 9L2 10L1 10L1 11L0 11L0 13L1 13L1 12L2 12L2 13L3 13L3 11L4 11L4 12L5 12L5 13L8 13L8 17L9 17L9 14L10 14L10 18L8 18L8 21L10 21L10 18L12 18L12 19L13 19L13 18L12 18L12 16L13 16L13 15L14 15L14 14L16 14L16 16L15 16L15 18L14 18L14 19L15 19L15 21L18 21L18 20L16 20L16 19L17 19L17 18L18 18L18 19L19 19L19 21L21 21L21 20L20 20L20 19L21 19L21 18L20 18L20 17L19 17L19 18L18 18L18 17L16 17L16 16L18 16L18 14L17 14L17 13L18 13L18 12L16 12L16 11L18 11L18 10L19 10L19 12L20 12L20 11L21 11L21 9L19 9L19 8L18 8L18 10L17 10L17 9L15 9L15 8L13 8L13 4L12 4L12 3L13 3L13 2L12 2L12 1L13 1L13 0L11 0L11 1L10 1L10 0ZM10 2L10 4L11 4L11 2ZM10 7L10 8L11 8L11 7ZM12 8L12 9L11 9L11 10L10 10L10 9L9 9L9 11L8 11L8 9L4 9L4 11L5 11L5 12L7 12L7 11L8 11L8 12L9 12L9 11L10 11L10 14L11 14L11 13L12 13L12 15L13 15L13 14L14 14L14 13L16 13L16 12L15 12L15 9L14 9L14 11L12 11L12 10L13 10L13 8ZM2 10L2 11L3 11L3 10ZM5 10L5 11L7 11L7 10ZM12 12L12 13L13 13L13 12ZM19 13L19 15L20 15L20 16L21 16L21 14L20 14L20 13ZM19 18L19 19L20 19L20 18ZM11 20L11 21L13 21L13 20ZM0 0L0 7L7 7L7 0ZM1 1L1 6L6 6L6 1ZM2 2L2 5L5 5L5 2ZM14 0L14 7L21 7L21 0ZM15 1L15 6L20 6L20 1ZM16 2L16 5L19 5L19 2ZM0 14L0 21L7 21L7 14ZM1 15L1 20L6 20L6 15ZM2 16L2 19L5 19L5 16Z" fill="#000000"/></g></g></svg>
