<svg width="50" height="50" viewBox="0 0 50 50" fill="none" xmlns="http://www.w3.org/2000/svg">
<path d="M45.5475 45.5468C40.4566 50.6354 32.1683 50.6354 27.0773 45.5468L25.6639 44.134L30.5354 39.2648L31.9487 40.6775C34.3501 43.0779 38.2747 43.0779 40.6761 40.6775C43.0775 38.2772 43.0775 34.3544 40.6761 31.9541L39.249 30.5413L44.1204 25.6721L45.5338 27.0849C50.6385 32.1598 50.6385 40.4444 45.5475 45.5468Z" fill="#7AE7C7"/>
<path d="M4.43541 4.45323C9.52638 -0.63545 17.8146 -0.63545 22.9056 4.45323L24.319 5.86598L19.4476 10.7352L18.0479 9.33616C15.6465 6.93584 11.7219 6.93584 9.32054 9.33616C6.91914 11.7365 6.91914 15.6593 9.32054 18.0596L10.7339 19.4724L5.86253 24.3416L4.44913 22.9288C-0.655559 17.8401 -0.655559 9.55562 4.43541 4.45323Z" fill="#7AE7C7"/>
<path d="M45.5475 45.5468C40.4566 50.6354 32.1683 50.6354 27.0773 45.5468L25.6639 44.134L30.5354 39.2648L31.9487 40.6775C34.3501 43.0779 38.2747 43.0779 40.6761 40.6775C43.0775 38.2772 43.0775 34.3544 40.6761 31.9541L39.249 30.5413L44.1204 25.6721L45.5338 27.0849C50.6385 32.1598 50.6385 40.4444 45.5475 45.5468Z" fill="#3D3AF8"/>
<path d="M21.9313 17.7441C21.9313 19.9112 20.1748 21.6669 18.0067 21.6669C15.8386 21.6669 14.0822 19.9112 14.0822 17.7441C14.0822 15.577 15.8386 13.8213 18.0067 13.8213C20.1748 13.8213 21.9313 15.577 21.9313 17.7441Z" fill="#FDBE49"/>
<path d="M36.1752 31.9814C36.1752 34.1485 34.4187 35.9042 32.2506 35.9042C30.0825 35.9042 28.326 34.1485 28.326 31.9814C28.326 29.8143 30.0825 28.0586 32.2506 28.0586C34.4187 28.0586 36.1752 29.8143 36.1752 31.9814Z" fill="#3D3AF8"/>
<path d="M22.0001 31.9403C22.0001 34.1074 20.2437 35.8631 18.0756 35.8631C15.9075 35.8631 14.151 34.1074 14.151 31.9403C14.151 29.7731 15.9075 28.0175 18.0756 28.0175C20.2437 28.0175 22.0001 29.7731 22.0001 31.9403Z" fill="#7AE7C7"/>
<path d="M36.0515 17.895C36.0515 20.0621 34.2951 21.8178 32.127 21.8178C29.9588 21.8178 28.2024 20.0621 28.2024 17.895C28.2024 15.7278 29.9588 13.9722 32.127 13.9722C34.2951 13.9722 36.0515 15.7278 36.0515 17.895Z" fill="#FFA3AF"/>
<path d="M4.43541 4.45323C9.52638 -0.63545 17.8146 -0.63545 22.9056 4.45323L24.319 5.86598L19.4476 10.7352L18.0479 9.33616C15.6465 6.93584 11.7219 6.93584 9.32054 9.33616C6.91914 11.7365 6.91914 15.6593 9.32054 18.0596L10.7339 19.4724L5.86253 24.3416L4.44913 22.9288C-0.655559 17.8401 -0.655559 9.55562 4.43541 4.45323Z" fill="#FDBE49"/>
<path d="M4.64122 45.3683C-0.449744 40.2796 -0.449744 31.9951 4.64122 26.9064L6.05462 25.4937L10.926 30.3629L9.51264 31.7756C7.11124 34.176 7.11124 38.0988 9.51264 40.4991C11.914 42.8994 15.8386 42.8994 18.24 40.4991L19.6534 39.0863L24.5248 43.9555L23.1251 45.3683C18.0205 50.457 9.73219 50.457 4.64122 45.3683Z" fill="#7AE7C7"/>
<path d="M48.388 18.7181C47.7568 20.2543 46.8099 21.6945 45.5612 22.9426L44.1478 24.3554L39.2764 19.4862L40.6898 18.0597C43.0912 15.6594 43.0912 11.7366 40.6898 9.33624C38.2884 6.93592 34.3638 6.93592 31.9624 9.33624L30.549 10.749L25.6776 5.87978L27.091 4.46702C32.182 -0.621656 40.4702 -0.621656 45.5612 4.46702C49.4034 8.30753 50.3503 13.9723 48.388 18.7181Z" fill="#FFA3AF"/>
</svg>
