<svg width="16" height="19" viewBox="0 0 16 19" fill="none" xmlns="http://www.w3.org/2000/svg">
<path d="M7.99997 1.5625C9.22368 1.56259 10.4199 1.92553 11.4373 2.60542C12.4548 3.28532 13.2478 4.25164 13.7161 5.38221C14.1843 6.51277 14.3069 7.7568 14.0682 8.957C13.8294 10.1572 13.2402 11.2597 12.375 12.125L7.99997 16.5L3.62497 12.125C2.75972 11.2597 2.17049 10.1572 1.93178 8.957C1.69307 7.7568 1.81561 6.51277 2.28389 5.38221C2.75217 4.25164 3.54517 3.28532 4.56261 2.60542C5.58006 1.92553 6.77626 1.56259 7.99997 1.5625ZM7.99997 0.3125C6.5298 0.313629 5.09295 0.750442 3.8709 1.56776C2.64886 2.38508 1.69646 3.54624 1.13401 4.90456C0.571549 6.26289 0.424272 7.75743 0.710777 9.19941C0.997283 10.6414 1.70472 11.9661 2.74372 13.0063L7.11872 17.3813L7.99997 18.2688L8.88122 17.3875L13.2562 13.0125C14.2974 11.9727 15.0067 10.6474 15.2944 9.20438C15.5822 7.76134 15.4354 6.26537 14.8727 4.90576C14.31 3.54615 13.3566 2.38401 12.1332 1.56639C10.9098 0.748761 9.47142 0.312393 7.99997 0.3125Z" fill="#6A6A72"/>
<path d="M7.99994 5.25C8.49439 5.25 8.97774 5.39662 9.38887 5.67133C9.79999 5.94603 10.1204 6.33648 10.3096 6.79329C10.4989 7.25011 10.5484 7.75277 10.4519 8.23773C10.3554 8.72268 10.1173 9.16814 9.76771 9.51777C9.41808 9.8674 8.97262 10.1055 8.48767 10.202C8.00271 10.2984 7.50005 10.2489 7.04323 10.0597C6.58642 9.87048 6.19597 9.55005 5.92127 9.13893C5.64656 8.7278 5.49994 8.24445 5.49994 7.75C5.49994 7.08696 5.76333 6.45107 6.23217 5.98223C6.70101 5.51339 7.3369 5.25 7.99994 5.25ZM7.99994 4C7.25826 4 6.53324 4.21993 5.91655 4.63199C5.29987 5.04404 4.81922 5.62971 4.53539 6.31494C4.25156 7.00016 4.1773 7.75416 4.322 8.48159C4.46669 9.20902 4.82384 9.8772 5.34829 10.4017C5.87274 10.9261 6.54092 11.2833 7.26835 11.4279C7.99578 11.5726 8.74978 11.4984 9.435 11.2145C10.1202 10.9307 10.7059 10.4501 11.118 9.83339C11.53 9.2167 11.7499 8.49168 11.7499 7.75C11.7499 6.75544 11.3549 5.80161 10.6516 5.09835C9.94833 4.39509 8.9945 4 7.99994 4Z" fill="#6A6A72"/>
</svg>
